<svg version="1.2" xmlns="http://www.w3.org/2000/svg" viewBox="0 0 1014 202" width="157" height="31">
	<title>logo-svg</title>
	<style>
		.s0 { fill: #f57b20 } 
		.s1 { fill: #ffffff } 
	</style>
	<g id="Layer">
		<path id="Layer" class="s0" d="m224.5 9.1c2.9 5.7 5.6 11.1 8.4 16.6 2.7 5.3 5.3 10.5 8 15.8 0.6 1.1 0.5 1.8-0.4 2.6-4.3 4.1-9.3 6.9-14.7 9-6.3 2.4-12.9 4.4-19.2 6.7-8.6 3.1-17.2 6.6-25 11.4-10.1 6.2-19.4 13.5-27.3 22.4-2 2.3-3.6 5-5.4 7.5-5-9.5-13.6-16.1-22-22.8-13.2-10.4-28.5-16.4-44.2-21.5-6.6-2.2-13.3-4.3-19.2-8.1-2.2-1.4-4.3-3.2-6.3-4.9-0.2-0.5-0.4-1.4-0.2-1.8 5.4-10.9 11-21.7 16.5-32.5 0-0.1 0.2-0.1 0.1-0.1 5 2.2 9.9 4.5 14.9 6.5 7.9 3.1 15.9 5.7 23.7 9.1 6.2 2.7 12.2 6 17.9 9.6 9.3 5.9 16.5 13.6 19.1 25.2 1.5-7.3 5.1-13 10-18 3.7-3.8 8-6.9 12.6-9.6 7.9-4.6 16.2-8.5 24.8-11.6 9.4-3.3 18.9-6.4 27.9-11.5z"/>
		<path id="Layer" class="s0" d="m265.7 53.6c-0.6 0.4-1.1 0.7-1.6 1-33.6 20.3-67.2 40.5-100.8 60.8-1.1 0.7-1.8 0.6-2.7-0.2-2.8-2.3-5.8-4.6-8.7-6.9 0.8-0.9 1.4-1.7 2.2-2.4 5.3-5.5 10.5-10.9 15.8-16.4 9.9-10.3 21.8-17.6 35.2-22.4 7.4-2.6 14.8-5.1 22.2-7.8 6.9-2.5 13.4-5.8 19-10.6 3.2-2.7 3.2-2.8 1.3-6.5-4.9-9.8-9.7-19.6-14.6-29.5-0.2-0.4-0.4-0.9-0.8-1.7 2 0.7 3.7 1.2 5.4 1.8 2.5 0.8 5.4 1.1 7.3 2.7 1.9 1.6 2.7 4.4 4 6.7 5.4 9.9 10.7 19.8 16.1 29.6 0.2 0.6 0.4 1.1 0.7 1.8z"/>
		<path id="Layer" class="s0" d="m32.4 53.6c1.2-2.2 2.3-4.3 3.5-6.4 5.5-10.1 11-20.3 16.5-30.4 0.5-1 1.2-1.6 2.3-1.9 3.7-1.2 7.4-2.4 11.4-3.8-0.4 0.9-0.6 1.5-0.9 2-5.2 10.3-10.3 20.7-15.5 31.1-0.6 1.2-0.5 1.9 0.5 2.9 4.6 4.6 10.1 7.9 16.1 10.3 7.1 2.8 14.3 5.1 21.5 7.7 4.3 1.6 8.6 3.4 12.9 5.1 9 3.8 17.2 9 24.1 15.9 7.2 7.2 14.2 14.4 21.5 21.8-3.4 2.8-6.5 5.4-9.6 7.9-0.3 0.2-1.2-0.2-1.7-0.5-9.8-5.9-19.7-11.8-29.5-17.8-23.9-14.2-47.7-28.6-71.5-42.9-0.5-0.3-1-0.6-1.6-1z"/>
		<path id="Layer" class="s0" d="m73.5 139.6c2.6-4.8 5.1-9.6 7.7-14.4 0.2-0.5 0.7-0.9 1.2-1.1 5.3-3.1 10.6-6.1 16-9.1 0.5-0.3 1.4-0.3 1.9 0 14.2 8.6 28.4 17.3 42.6 26 0.1 0.1 0.3 0.2 0.5 0.5-30.9 18.8-61.8 37.5-92.8 56.2-1.1-1.7-2.1-3.4-3.1-5.1-0.2-0.4-0.2-1.1 0-1.5 3-6.3 6-12.6 9-18.8 0.3-0.7 1.1-1.2 1.8-1.6 12-6.5 23.8-13.3 34.6-21.8 3.1-2.5 6.1-5.2 8.9-8.1 1.4-1.4 2.6-3.2 3.5-5 2.1-4.2-0.9-9.7-5.6-10-1.7-0.1-3.6 0.6-5.2 1.4-6.6 3.8-13.1 7.9-19.6 11.8-0.5 0.3-0.9 0.5-1.4 0.8 0.1 0 0.1-0.1 0-0.2z"/>
		<path id="Layer" class="s0" d="m247.5 197.8c-31-18.8-61.9-37.5-92.9-56.3 3.1-1.9 6-3.7 8.9-5.4 11.3-6.9 22.6-13.8 33.9-20.8 1-0.6 1.8-0.7 2.9-0.1 5 3 10.2 5.8 15.2 8.7 0.6 0.3 1.2 0.8 1.5 1.3 2.6 4.7 5.1 9.4 7.6 14.1 0.1 0.1 0.1 0.3 0.2 0.6q-0.9-0.5-1.5-0.9c-6.5-3.9-13-7.9-19.6-11.9-4.5-2.7-8.1-1.8-10.9 2.7-1 1.6-1.2 3.2-0.4 4.8 1.2 2.2 2.4 4.4 4 6.3 4.9 5.6 10.9 10.1 17.2 14 8.7 5.4 17.6 10.5 26.3 15.8 0.8 0.5 1.6 1.2 2 2.1 2.9 5.9 5.7 11.8 8.6 17.7 0.5 1 0.5 1.8-0.2 2.7-1 1.6-1.8 3-2.8 4.6z"/>
		<path id="Layer" class="s0" d="m147.1 139.6c-46.4-28.9-92.3-57.4-138.2-86 2.3-4.6 4.5-9.2 6.8-13.7 4.8-9.7 9.6-19.3 14.5-29 0.4-0.8 1.2-1.6 2-2.1 2.4-1.6 4.9-3 7.6-4.3-7.4 15.5-14.9 31-22.4 46.7 0.7 0.5 1.3 0.8 1.9 1.2 42 25.5 84.1 51 126.1 76.4 1.4 0.9 2 1.7 1.8 3.4-0.3 2.3-0.1 4.6-0.1 7.4z"/>
		<path id="Layer" class="s0" d="m280.9 51.1c-7.5-15.6-14.9-31.1-22.3-46.6q0.2-0.1 0.3-0.3c2.8 1.7 5.6 3.5 8.4 5.2 0.3 0.2 0.5 0.6 0.7 0.9 7 14.1 14.1 28.3 21.1 42.5 0.1 0.2 0.2 0.4 0.3 0.8-45.9 28.5-91.8 57.1-137.9 85.8-0.1-3.2-0.3-6.1-0.3-9 0-0.4 0.8-1 1.3-1.3 11.5-7 22.9-13.9 34.4-20.9 30.8-18.7 61.5-37.3 92.3-56 0.5-0.2 1-0.6 1.7-1.1z"/>
		<path id="Layer" class="s0" d="m224 143.6c-1.3 2.1-2.5 4.1-3.8 6.2-9-5.6-17.9-11-27.3-16.8 2-1.1 3.5-2.1 5.2-2.8 0.8-0.3 2-0.2 2.7 0.2 7.7 4.4 15.3 8.7 23.2 13.2z"/>
		<path id="Layer" class="s0" d="m78 149.8c-1.3-2.1-2.5-4.1-3.8-6.2 0.6-0.3 1.1-0.7 1.6-1 6.7-3.8 13.4-7.5 20-11.5 2.8-1.7 5-1.3 7.3 0.5 0.6 0.4 1.1 0.9 1.9 1.5-9 5.7-17.9 11.2-27 16.7z"/>
	</g>
	<g id="Layer">
		<path id="Layer" fill-rule="evenodd" class="s1" d="m395.8 148.6h-3.2c-5.2 0-9.2-1.4-12.2-4.1-3.3 2.8-7.4 4.1-12.3 4.1h-22c-3.3 0-4.9 1.6-4.9 4.7v28.5h-14.5v-28.5c0-12.6 6.5-18.9 19.4-18.9v-51.6c0-5.2 1.9-9.7 5.6-13.4 3.7-3.7 8.9-5.6 15.7-5.6 6.1 0 11 1.8 14.9 5.4 3.9 3.6 5.8 7.9 5.8 13v47.6c0 3.1 1.5 4.7 4.5 4.7h3.2zm-22.4-18.8v-45.5c0-3.6-2-5.4-6.1-5.4-4.5 0-6.8 1.8-6.8 5.4v50.2h7.4c3.7 0 5.5-1.6 5.5-4.7z"/>
		<path id="Layer" class="s1" d="m423.2 129.8c0 5.2-1.9 9.6-5.7 13.3-3.8 3.7-8.8 5.5-14.9 5.5h-9.5v-14.1h11c3 0 4.5-1.6 4.5-4.7v-66.1h14.6zm-15.9 32.3c0 1.9-0.7 3.5-2 4.8-1.3 1.3-3 2-4.8 2-1.9 0-3.4-0.7-4.8-2-1.3-1.4-2-3-2-4.8 0-1.8 0.7-3.4 2-4.7 1.3-1.3 2.9-2 4.7-2 1.9 0 3.5 0.7 4.8 2 1.4 1.3 2.1 2.8 2.1 4.7zm15.8 0c0 1.9-0.7 3.5-2 4.8-1.3 1.3-3 2-4.8 2-1.9 0-3.4-0.7-4.8-2-1.3-1.4-2-3-2-4.8 0-1.8 0.7-3.4 2-4.7 1.3-1.3 2.9-2 4.7-2 1.9 0 3.5 0.7 4.8 2 1.4 1.3 2.1 2.8 2.1 4.7z"/>
		<path id="Layer" class="s1" d="m467.9 148.6h-3.2c-2.9 0-4.4-0.3-4.6-1v3c0 11.4-4.1 21-12.3 28.6l-10.9-9.5c5.8-5.5 8.6-12.9 8.6-22.2v-83.8h14.5v65.9c0 3.2 1.5 4.8 4.6 4.8h3.2v14.2z"/>
		<path id="Layer" class="s1" d="m567.1 148.6h-11.8c-7.3 0-13.5-1.3-18.4-3.8-5.2 2.5-11.3 3.8-18.3 3.8h-53.1v-14.1h53.1c7.7 0 14.3-2.8 19.6-8.3 5.4-5.6 8-12.2 8-19.9 0-7.8-2.7-14.4-8-20-5.3-5.5-11.9-8.3-19.7-8.3h-43.5v-14.1l35.5-24.9h23.7l-35.7 24.7h20.1c11.7 0 21.6 4.1 29.7 12.4 8.1 8.3 12.2 18.3 12.2 30q0 15.6-10.2 27.6c2 0.5 3.6 0.7 5 0.7h11.8z"/>
		<path id="Layer" class="s1" d="m588.1 129.8c0 5.2-1.9 9.6-5.7 13.3-3.8 3.7-8.2 5.5-13.3 5.5h-4.7v-14.1h4.7c3 0 4.5-1.6 4.5-4.7v-91.5h14.5z"/>
		<path id="Layer" class="s1" d="m618.3 148.6h-14.4v-110.3h14.4z"/>
		<path id="Layer" class="s1" d="m732.9 126.3c0 12.2-4.5 22.3-13.5 30.2-8.3 7.3-17.8 11-28.6 11-11.6 0-21.6-4.1-29.9-12.3-8.3-8.2-12.4-18.1-12.4-29.7v-61.8h14.5v61.8q0 11.4 8.1 19.5c5.4 5.4 12 8.1 19.6 8.1 8.5 0 15.3-2.9 20.4-8.6 4.9-5.5 7.3-12.5 7.3-21.1v-59.7h14.5zm-34.7-75.4c0 1.9-0.7 3.4-2 4.7-1.3 1.3-2.9 2-4.8 2-1.8 0-3.3-0.7-4.7-2-1.4-1.3-2-2.9-2-4.7 0-1.9 0.7-3.5 2-4.8 1.3-1.4 2.9-2 4.7-2 1.9 0 3.5 0.7 4.8 2 1.3 1.3 2 3 2 4.8z"/>
		<path id="Layer" class="s1" d="m775.5 24.5c0 2.5-0.9 4.7-2.8 6.4-1.9 1.8-4 2.7-6.5 2.7-2.6 0-5.2-1.4-7.9-4.3-2.6-2.9-4.3-4.3-5.2-4.3-3.1 0-4.6 1.5-4.6 4.5v4.1h-4.9v-4.1c0-2.6 0.9-4.7 2.8-6.6 1.9-1.8 4.1-2.7 6.7-2.7 2.1 0 4.4 1.4 7 4.3 2.6 2.9 4.6 4.3 6 4.3 3.1 0 4.7-1.4 4.7-4.3v-4.1h4.7zm-8.4 124.1h-14.4v-110.3h14.4z"/>
		<path id="Layer" class="s1" d="m811.7 148.6h-3.2c-2.9 0-4.4-0.3-4.6-1v3c0 11.4-4.1 21-12.3 28.6l-10.9-9.5c5.8-5.5 8.6-12.9 8.6-22.2v-83.8h14.6v65.9c0 3.2 1.5 4.8 4.6 4.8h3.2z"/>
		<path id="Layer" fill-rule="evenodd" class="s1" d="m873 148.6c-5.3 0-9-0.8-11.4-2.5-2.3 1.7-6.1 2.5-11.5 2.5h-40.9v-14.1h20.9c-7.2-8-10.8-17.4-10.8-28.4 0-11.7 4.1-21.7 12.4-30 8.2-8.2 18.2-12.4 30-12.4 11.8 0 21.8 4.1 30.1 12.3 8.3 8.2 12.5 18.1 12.5 29.9 0 11.1-4 20.6-12 28.6h19.8v14.1zm17.1-42.6c-0.1-7.8-2.8-14.5-8.3-20-5.5-5.5-12.2-8.3-20-8.3-7.8 0-14.5 2.8-20 8.3-5.5 5.5-8.3 12.2-8.4 20-0.1 8 2.7 14.8 8.1 20.3 5.5 5.5 12.2 8.3 20.2 8.3 7.9 0 14.7-2.8 20.2-8.3 5.6-5.6 8.3-12.3 8.2-20.3zm-31.1-55.7c0 2.1-0.7 3.9-2.2 5.3q-2.3 2.1-5.4 2.1c-2.1 0-3.8-0.7-5.2-2.1-1.4-1.4-2.1-3.2-2.1-5.2 0-2.1 0.7-3.8 2.1-5.3 1.4-1.5 3.2-2.2 5.2-2.2 2.1 0 3.9 0.7 5.4 2.2 1.4 1.3 2.2 3.1 2.2 5.2zm17.3 0c0 2.1-0.7 3.9-2.2 5.3q-2.3 2.1-5.4 2.1c-2.1 0-3.8-0.7-5.2-2.1-1.4-1.4-2.1-3.2-2.1-5.2 0-2.1 0.7-3.8 2.1-5.3 1.4-1.5 3.2-2.2 5.2-2.2 2.1 0 3.9 0.7 5.4 2.2 1.4 1.3 2.2 3.1 2.2 5.2z"/>
		<path id="Layer" class="s1" d="m933.4 129.8c0 5.2-1.9 9.6-5.7 13.3-3.8 3.7-8.2 5.5-13.3 5.5h-4.7v-14.1h4.7c3 0 4.5-1.6 4.5-4.7v-91.5h14.5z"/>
		<path id="Layer" class="s1" d="m963.6 148.6h-14.4v-110.3h14.4z"/>
	</g>
</svg>